<svg xmlns="http://www.w3.org/2000/svg" viewBox="0 0 640 160" role="img" aria-label="Bay Harbor Benefits">
  <!-- v2: sun offset right (rising-sun composition), full ray ring -->
  <g>
    <circle cx="80" cy="80" r="64" fill="#14456b"/>
    <circle cx="80" cy="80" r="64" fill="none" stroke="#e07a1a" stroke-width="3"/>
    <!-- sun, offset right -->
    <circle cx="91" cy="58" r="15" fill="#e8721c"/>
    <g stroke="#e8721c" stroke-width="4" stroke-linecap="round">
      <line x1="111"   y1="58"   x2="120"   y2="58"/>
      <line x1="105.1" y1="43.9" x2="111.5" y2="37.5"/>
      <line x1="91"    y1="38"   x2="91"    y2="29"/>
      <line x1="76.9"  y1="43.9" x2="70.5"  y2="37.5"/>
      <line x1="71"    y1="58"   x2="62"    y2="58"/>
      <line x1="76.9"  y1="72.1" x2="70.5"  y2="78.6"/>
      <line x1="91"    y1="78"   x2="91"    y2="87"/>
      <line x1="105.1" y1="72.1" x2="111.5" y2="78.6"/>
    </g>
    <!-- waves -->
    <g fill="none" stroke="#f5f7f9" stroke-width="5" stroke-linecap="round">
      <path d="M 36 104 Q 50 96 64 104 T 92 104 T 120 104"/>
      <path d="M 44 119 Q 56 112 68 119 T 92 119 T 112 119"/>
    </g>
  </g>
  <!-- Wordmark -->
  <g font-family="Georgia, 'Times New Roman', serif">
    <text x="168" y="86" font-size="46" font-weight="bold" fill="#14456b">Bay Harbor</text>
    <text x="170" y="124" font-size="26" letter-spacing="14" fill="#c85f0a" font-family="Calibri, Arial, sans-serif" font-weight="600">BENEFITS</text>
  </g>
</svg>
